<?xml version="1.0" encoding="UTF-8"?>
<svg version="1.1" xmlns="http://www.w3.org/2000/svg" width="562" height="238">
<path d="M0 0 C47.46418683 -0.01711014 94.9283738 -0.03308204 142.39256287 -0.04234314 C143.09829692 -0.0424812 143.80403098 -0.04261925 144.53115092 -0.04276149 C159.87931246 -0.04575642 175.22747403 -0.04852631 190.57563565 -0.05106533 C198.10551817 -0.05231235 205.63540069 -0.05360895 213.1652832 -0.05493164 C213.91448186 -0.0550624 214.66368051 -0.05519316 215.43558216 -0.05532788 C239.59306109 -0.05956726 263.75053765 -0.06706184 287.90801515 -0.07629722 C312.79305739 -0.08579317 337.67809832 -0.09189996 362.56314234 -0.09391499 C366.10131362 -0.09420302 369.6394849 -0.09452866 373.17765617 -0.09487724 C373.87382205 -0.09494467 374.56998793 -0.09501209 375.28724974 -0.09508156 C386.36371978 -0.09625004 397.44018568 -0.10085146 408.51665404 -0.10683203 C419.73088266 -0.11281025 430.94510823 -0.11486653 442.1593386 -0.11350138 C448.20347721 -0.11287197 454.24760401 -0.11371122 460.29174042 -0.11920547 C493.87148028 -0.14825689 527.42796736 0.27953556 561 1 C561.16542906 4.68812274 561.32884534 8.37633209 561.49191284 12.06455994 C561.53852397 13.10317594 561.5851351 14.14179194 561.63315868 15.21188116 C564.88911684 89.16208715 561.51830742 164.40034579 561 238 C376.2 238 191.4 238 1 238 C0 37 0 37 0 0 Z " fill="#4D4D4D" transform="translate(0,0)"/>
<path d="M0 0 C10.98446636 -0.04295902 21.96748131 -0.03393174 32.95176697 0.04394531 C36.15312448 0.06605591 39.35409597 0.07521096 42.55552673 0.07281494 C75.13822484 0.06866145 75.13822484 0.06866145 88.41673279 7.01065063 C89.41673279 8.01065063 89.41673279 8.01065063 89.53025818 9.77651978 C89.52502136 10.52538452 89.51978455 11.27424927 89.51438904 12.04580688 C89.51116638 12.8546936 89.50794373 13.66358032 89.50462341 14.49697876 C89.49624451 15.34711548 89.4878656 16.1972522 89.47923279 17.07315063 C89.47472107 17.92715454 89.47020935 18.78115845 89.46556091 19.66104126 C89.45373652 21.77760727 89.43580047 23.89413749 89.41673279 26.01065063 C83.18233111 24.42104731 77.25385634 22.73464162 71.41673279 20.01065063 C71.74673279 24.96065063 72.07673279 29.91065063 72.41673279 35.01065063 C78.02673279 36.99065063 83.63673279 38.97065063 89.41673279 41.01065063 C89.41673279 46.29065063 89.41673279 51.57065063 89.41673279 57.01065063 C90.54852966 56.57752563 91.68032654 56.14440063 92.84642029 55.69815063 C94.32812549 55.13547777 95.80989993 54.57298721 97.29173279 54.01065063 C98.03809998 53.72447876 98.78446716 53.43830688 99.55345154 53.14346313 C105.19017029 51.01065063 105.19017029 51.01065063 107.41673279 51.01065063 C107.41673279 57.28065063 107.41673279 63.55065063 107.41673279 70.01065063 C103.17829529 71.77408813 103.17829529 71.77408813 98.85423279 73.57315063 C97.97823425 73.94770386 97.10223572 74.32225708 96.19969177 74.7081604 C88.89015642 77.64600753 83.79183908 76.74680243 76.47923279 73.94815063 C75.52145935 73.58592407 74.56368591 73.22369751 73.57688904 72.85049438 C72.86403748 72.57334595 72.15118591 72.29619751 71.41673279 72.01065063 C71.41673279 73.66065063 71.41673279 75.31065063 71.41673279 77.01065063 C71.08673279 77.01065063 70.75673279 77.01065063 70.41673279 77.01065063 C70.41673279 74.70065063 70.41673279 72.39065063 70.41673279 70.01065063 C74.73604666 70.62676898 78.66882054 71.65303642 82.79173279 73.07315063 C84.64798279 73.71252563 86.50423279 74.35190063 88.41673279 75.01065063 C88.41673279 69.73065063 88.41673279 64.45065063 88.41673279 59.01065063 C86.76673279 58.68065063 85.11673279 58.35065063 83.41673279 58.01065063 C79.04087237 56.44601121 74.74145728 54.71432998 70.41673279 53.01065063 C70.41673279 47.73065063 70.41673279 42.45065063 70.41673279 37.01065063 C68.33360779 37.83565063 66.25048279 38.66065063 64.10423279 39.51065063 C57.79173279 42.01065063 57.79173279 42.01065063 54.41673279 42.01065063 C54.41673279 47.95065063 54.41673279 53.89065063 54.41673279 60.01065063 C48.03921046 58.12434121 41.71576166 56.14419267 35.41673279 54.01065063 C35.41673279 59.29065063 35.41673279 64.57065063 35.41673279 70.01065063 C32.43834744 71.17934639 29.45908192 72.3456983 26.47923279 73.51065063 C25.62909607 73.84451782 24.77895935 74.17838501 23.90306091 74.52236938 C23.09417419 74.8381897 22.28528748 75.15401001 21.45188904 75.47940063 C20.70302429 75.77266235 19.95415955 76.06592407 19.18260193 76.36807251 C17.41673279 77.01065063 17.41673279 77.01065063 16.41673279 77.01065063 C16.41673279 70.74065063 16.41673279 64.47065063 16.41673279 58.01065063 C24.83173279 54.54565063 24.83173279 54.54565063 33.41673279 51.01065063 C33.74673279 40.78065063 34.07673279 30.55065063 34.41673279 20.01065063 C29.46673279 21.99065063 24.51673279 23.97065063 19.41673279 26.01065063 C19.08673279 31.62065063 18.75673279 37.23065063 18.41673279 43.01065063 C11.50029539 41.85791107 5.92407036 39.60030538 -0.58326721 37.01065063 C-0.58326721 42.29065063 -0.58326721 47.57065063 -0.58326721 53.01065063 C-2.99639221 54.00065063 -5.40951721 54.99065063 -7.89576721 56.01065063 C-8.65156067 56.32389282 -9.40735413 56.63713501 -10.18605042 56.95986938 C-13.13553933 58.15435907 -15.37302841 59.01065063 -18.58326721 59.01065063 C-18.58326721 64.95065063 -18.58326721 70.89065063 -18.58326721 77.01065063 C-28.48326721 73.54565063 -28.48326721 73.54565063 -38.58326721 70.01065063 C-38.58326721 63.74065063 -38.58326721 57.47065063 -38.58326721 51.01065063 C-32.08599036 52.71618581 -25.82693561 54.53674429 -19.58326721 57.01065063 C-19.91326721 52.39065063 -20.24326721 47.77065063 -20.58326721 43.01065063 C-21.79885315 42.5891272 -23.01443909 42.16760376 -24.26686096 41.73330688 C-25.85154913 41.18007255 -27.43618169 40.62667891 -29.02076721 40.07315063 C-29.82320862 39.79535767 -30.62565002 39.5175647 -31.45240784 39.23135376 C-32.21617737 38.96387329 -32.9799469 38.69639282 -33.76686096 38.42080688 C-34.47383118 38.17467651 -35.18080139 37.92854614 -35.90919495 37.67495728 C-37.58326721 37.01065063 -37.58326721 37.01065063 -38.58326721 36.01065063 C-38.65646343 33.3141021 -38.67569258 30.64373606 -38.64576721 27.94815063 C-38.64125549 27.18953735 -38.63674377 26.43092407 -38.63209534 25.64932251 C-38.62027401 23.76973192 -38.60233799 21.89018165 -38.58326721 20.01065063 C-39.48690002 20.37158813 -40.39053284 20.73252563 -41.32154846 21.10440063 C-42.50104065 21.56846313 -43.68053284 22.03252563 -44.89576721 22.51065063 C-46.06752502 22.97471313 -47.23928284 23.43877563 -48.44654846 23.91690063 C-51.58326721 25.01065063 -51.58326721 25.01065063 -54.58326721 25.01065063 C-54.58326721 36.56065063 -54.58326721 48.11065063 -54.58326721 60.01065063 C-58.88748018 59.14980804 -61.83829174 58.04247874 -65.77076721 56.26065063 C-71.52102645 53.98789812 -74.78424544 53.75994779 -80.49732971 56.03408813 C-81.18568909 56.35635376 -81.87404846 56.67861938 -82.58326721 57.01065063 C-86.1939302 58.50201144 -87.55073619 59.01065063 -91.58326721 59.01065063 C-91.91326721 53.73065063 -92.24326721 48.45065063 -92.58326721 43.01065063 C-93.79885315 42.5891272 -95.01443909 42.16760376 -96.26686096 41.73330688 C-97.85154913 41.18007255 -99.43618169 40.62667891 -101.02076721 40.07315063 C-101.82320862 39.79535767 -102.62565002 39.5175647 -103.45240784 39.23135376 C-104.59806213 38.83013306 -104.59806213 38.83013306 -105.76686096 38.42080688 C-106.47383118 38.17467651 -107.18080139 37.92854614 -107.90919495 37.67495728 C-109.58326721 37.01065063 -109.58326721 37.01065063 -110.58326721 36.01065063 C-110.66958596 34.6679765 -110.69033194 33.32090742 -110.68092346 31.97549438 C-110.67770081 31.16660767 -110.67447815 30.35772095 -110.67115784 29.52432251 C-110.66277893 28.67418579 -110.65440002 27.82404907 -110.64576721 26.94815063 C-110.64125549 26.09414673 -110.63674377 25.24014282 -110.63209534 24.36026001 C-110.62027095 22.243694 -110.6023349 20.12716378 -110.58326721 18.01065063 C-104.09619567 19.69204234 -97.81550371 21.54127391 -91.58326721 24.01065063 C-91.58326721 18.73065063 -91.58326721 13.45065063 -91.58326721 8.01065063 C-74.4726608 0.78617237 -74.4726608 0.78617237 -67.55885315 0.67593384 C-66.37397308 0.65291199 -65.18909302 0.62989014 -63.9683075 0.60617065 C-62.68108795 0.59140686 -61.39386841 0.57664307 -60.06764221 0.56143188 C-58.68627461 0.5393919 -57.3049168 0.51673129 -55.92356873 0.49349976 C-52.17597544 0.43402584 -48.4283483 0.3887372 -44.68050385 0.34843826 C-42.32993513 0.32311474 -39.97940025 0.29556976 -37.62886047 0.2677002 C-25.08611061 0.12296374 -12.54343043 0.05171571 0 0 Z " fill="#6A6A6A" transform="translate(218.58326721191406,-0.010650634765624997)"/>
<path d="M0 0 C17.73700679 -0.20054405 17.73700679 -0.20054405 25.36328125 -0.24414062 C30.5443722 -0.27390058 35.72501666 -0.3089049 40.90576172 -0.37719727 C45.08795272 -0.43197465 49.26966421 -0.46151552 53.45218658 -0.47438622 C55.03884671 -0.48354491 56.62548394 -0.50142738 58.21193695 -0.52865028 C68.18832353 -0.69285705 75.95294482 0.4211208 85 5 C87.31 5.99 89.62 6.98 92 8 C92 13.94 92 19.88 92 26 C86.05064416 24.7915371 80.63555833 23.25422333 75 21 C75 25.62 75 30.24 75 35 C76.71509766 35.63228516 76.71509766 35.63228516 78.46484375 36.27734375 C79.95578259 36.83058521 81.44666511 37.38397847 82.9375 37.9375 C83.69224609 38.21529297 84.44699219 38.49308594 85.22460938 38.77929688 C90.88671875 40.88671875 90.88671875 40.88671875 92 42 C92.07313567 44.53049402 92.09247527 47.03304837 92.0625 49.5625 C92.05798828 50.27341797 92.05347656 50.98433594 92.04882812 51.71679688 C92.03700864 53.47790013 92.01907263 55.23896036 92 57 C93.04800781 56.566875 94.09601563 56.13375 95.17578125 55.6875 C96.55457596 55.12472665 97.93348839 54.56224165 99.3125 54 C100.00279297 53.71382812 100.69308594 53.42765625 101.40429688 53.1328125 C104.41545674 51.91089256 106.71886984 51 110 51 C110 57.27 110 63.54 110 70 C107.04322789 71.17076229 104.08473257 72.33676671 101.125 73.5 C100.28324219 73.83386719 99.44148438 74.16773437 98.57421875 74.51171875 C97.76855469 74.82753906 96.96289062 75.14335938 96.1328125 75.46875 C95.01737061 75.90864258 95.01737061 75.90864258 93.87939453 76.35742188 C92 77 92 77 90 77 C90 71.06 90 65.12 90 59 C88.515 58.566875 87.03 58.13375 85.5 57.6875 C80.9120649 56.31504078 76.46219783 54.73529916 72 53 C72 47.72 72 42.44 72 37 C67.05 38.98 62.1 40.96 57 43 C56.67 48.61 56.34 54.22 56 60 C49.88940424 58.2177429 43.9317281 56.30678315 38 54 C38 59.28 38 64.56 38 70 C35.04322789 71.17076229 32.08473257 72.33676671 29.125 73.5 C28.28324219 73.83386719 27.44148438 74.16773437 26.57421875 74.51171875 C25.76855469 74.82753906 24.96289062 75.14335938 24.1328125 75.46875 C23.38918457 75.76201172 22.64555664 76.05527344 21.87939453 76.35742188 C20 77 20 77 18 77 C18 70.73 18 64.46 18 58 C20.413125 57.01 22.82625 56.02 25.3125 55 C26.06829346 54.68675781 26.82408691 54.37351563 27.6027832 54.05078125 C30.55227212 52.85629156 32.7897612 52 36 52 C35.67 41.77 35.34 31.54 35 21 C28.07 23.475 28.07 23.475 21 26 C20.67 30.62 20.34 35.24 20 40 C19.67 40 19.34 40 19 40 C19 35.38 19 30.76 19 26 C17.35 25.67 15.7 25.34 14 25 C9.62413958 23.43536058 5.32472449 21.70367935 1 20 C1 25.61 1 31.22 1 37 C0.67 37 0.34 37 0 37 C0 24.79 0 12.58 0 0 Z " fill="#686868" transform="translate(0,0)"/>
<path d="M0 0 C2.98039148 0.97556358 5.95930975 1.95525914 8.9375 2.9375 C9.78763672 3.21529297 10.63777344 3.49308594 11.51367188 3.77929688 C12.32255859 4.04677734 13.13144531 4.31425781 13.96484375 4.58984375 C14.7137085 4.83597412 15.46257324 5.08210449 16.23413086 5.33569336 C18 6 18 6 19 7 C19.08631874 8.34267413 19.10706473 9.68974322 19.09765625 11.03515625 C19.09282227 12.24848633 19.09282227 12.24848633 19.08789062 13.48632812 C19.07532227 14.7615332 19.07532227 14.7615332 19.0625 16.0625 C19.05798828 16.91650391 19.05347656 17.77050781 19.04882812 18.65039062 C19.03700373 20.76695663 19.01906769 22.88348685 19 25 C12.66946386 23.96279351 6.9447357 21.34186558 1 19 C1.495 26.425 1.495 26.425 2 34 C7.61 35.98 13.22 37.96 19 40 C19 45.28 19 50.56 19 56 C20.13179687 55.566875 21.26359375 55.13375 22.4296875 54.6875 C23.9113927 54.12482714 25.39316714 53.56233657 26.875 53 C27.62136719 52.71382812 28.36773438 52.42765625 29.13671875 52.1328125 C34.7734375 50 34.7734375 50 37 50 C37.495 59.405 37.495 59.405 38 69 C43.94 70.98 49.88 72.96 56 75 C56 81.6 56 88.2 56 95 C52.85291716 93.85750452 49.70732422 92.71118133 46.5625 91.5625 C45.21575195 91.07426758 45.21575195 91.07426758 43.84179688 90.57617188 C42.98779297 90.26357422 42.13378906 89.95097656 41.25390625 89.62890625 C40.46314697 89.34088135 39.6723877 89.05285645 38.85766602 88.75610352 C37 88 37 88 36 87 C35.91368126 85.65732587 35.89293527 84.31025678 35.90234375 82.96484375 C35.90717773 81.75151367 35.90717773 81.75151367 35.91210938 80.51367188 C35.92467773 79.2384668 35.92467773 79.2384668 35.9375 77.9375 C35.94201172 77.08349609 35.94652344 76.22949219 35.95117188 75.34960938 C35.96299627 73.23304337 35.98093231 71.11651315 36 69 C34.55367187 69.63228516 34.55367187 69.63228516 33.078125 70.27734375 C31.80215324 70.83089032 30.52610767 71.38426681 29.25 71.9375 C28.61578125 72.21529297 27.9815625 72.49308594 27.328125 72.77929688 C24.21101699 74.12679669 21.30789224 75.17302694 18 76 C18 70.06 18 64.12 18 58 C16.35 57.67 14.7 57.34 13 57 C8.62413958 55.43536058 4.32472449 53.70367935 0 52 C0 46.72 0 41.44 0 36 C-2.083125 36.825 -4.16625 37.65 -6.3125 38.5 C-12.625 41 -12.625 41 -16 41 C-16 46.94 -16 52.88 -16 59 C-22.11059576 57.2177429 -28.0682719 55.30678315 -34 53 C-34 58.28 -34 63.56 -34 69 C-40.6 71.31 -47.2 73.62 -54 76 C-54 69.73 -54 63.46 -54 57 C-51.586875 56.01 -49.17375 55.02 -46.6875 54 C-45.93170654 53.68675781 -45.17591309 53.37351563 -44.3972168 53.05078125 C-41.44772788 51.85629156 -39.2102388 51 -36 51 C-36 40.77 -36 30.54 -36 20 C-35.67 20 -35.34 20 -35 20 C-35 24.62 -35 29.24 -35 34 C-33.47375 34.45375 -31.9475 34.9075 -30.375 35.375 C-26.55128435 36.51178033 -22.7887523 37.73708257 -19 39 C-18.67 34.05 -18.34 29.1 -18 24 C-9.585 20.535 -9.585 20.535 -1 17 C-0.67 11.39 -0.34 5.78 0 0 Z " fill="#6B6B6B" transform="translate(506,1)"/>
<path d="M0 0 C0 5.28 0 10.56 0 16 C-0.33 16 -0.66 16 -1 16 C-1.33 11.38 -1.66 6.76 -2 2 C-4.10375 2.825 -6.2075 3.65 -8.375 4.5 C-14.75 7 -14.75 7 -17 7 C-17 11.95 -17 16.9 -17 22 C-15.02 21.34 -13.04 20.68 -11 20 C-10.67 20.66 -10.34 21.32 -10 22 C-11.98 22.66 -13.96 23.32 -16 24 C-16 28.62 -16 33.24 -16 38 C-9.07 35.525 -9.07 35.525 -2 33 C-1.67 28.38 -1.34 23.76 -1 19 C-0.67 19 -0.34 19 0 19 C0 23.62 0 28.24 0 33 C1.65 33.33 3.3 33.66 5 34 C8.70254193 35.24417401 12.33994347 36.63299094 16 38 C16.33 33.05 16.66 28.1 17 23 C17.33 23 17.66 23 18 23 C18 33.89 18 44.78 18 56 C24.32442618 53.21462066 24.32442618 53.21462066 30.5 50.125 C38.88438891 47.43001785 47.3891417 52.67571706 55 56 C55 62.27 55 68.54 55 75 C46.375 71.9375 46.375 71.9375 43.69287109 70.96069336 C33.78027519 67.55275047 26.56055723 71.48243649 17 75 C16.67 69.39 16.34 63.78 16 58 C4.20533297 52.32321034 4.20533297 52.32321034 -8.22680664 53.72412109 C-11.54495788 55.0391225 -14.7735014 56.47289508 -18 58 C-18.33 58 -18.66 58 -19 58 C-19 52.06 -19 46.12 -19 40 C-20.98 39.67 -22.96 39.34 -25 39 C-26.95317601 38.38076322 -28.89214393 37.71455109 -30.8125 37 C-32.24529297 36.4740625 -32.24529297 36.4740625 -33.70703125 35.9375 C-36 35 -36 35 -37 34 C-37.08631874 32.65732587 -37.10706473 31.31025678 -37.09765625 29.96484375 C-37.09443359 29.15595703 -37.09121094 28.34707031 -37.08789062 27.51367188 C-37.07951172 26.66353516 -37.07113281 25.81339844 -37.0625 24.9375 C-37.05798828 24.08349609 -37.05347656 23.22949219 -37.04882812 22.34960938 C-37.03700373 20.23304337 -37.01906769 18.11651315 -37 16 C-34.37434281 16.81042494 -31.74946834 17.62324187 -29.125 18.4375 C-28.37863281 18.66759766 -27.63226563 18.89769531 -26.86328125 19.13476562 C-21.2265625 20.88671875 -21.2265625 20.88671875 -19 22 C-19 16.72 -19 11.44 -19 6 C-16.6075 5.01 -14.215 4.02 -11.75 3 C-10.62996582 2.53013672 -10.62996582 2.53013672 -9.48730469 2.05078125 C-6.0480948 0.6521569 -3.76370933 0 0 0 Z " fill="#6A6A6A" transform="translate(362,2)"/>
<path d="M0 0 C12.54 0 25.08 0 38 0 C38 6.27 38 12.54 38 19 C38.66 19.33 39.32 19.66 40 20 C39.34 20 38.68 20 38 20 C38.495 27.425 38.495 27.425 39 35 C44.28 36.98 49.56 38.96 55 41 C55 36.38 55 31.76 55 27 C55.33 27 55.66 27 56 27 C56 31.62 56 36.24 56 41 C56.99 41.495 56.99 41.495 58 42 C57.67 42.33 57.34 42.66 57 43 C56.76298761 45.85877909 56.57780818 48.69883297 56.4375 51.5625 C56.37272461 52.77196289 56.37272461 52.77196289 56.30664062 54.00585938 C56.20024738 56.00368805 56.09959112 58.0018207 56 60 C49.89262558 58.23536928 43.92566493 56.30442525 38 54 C38 59.28 38 64.56 38 70 C35.04322789 71.17076229 32.08473257 72.33676671 29.125 73.5 C28.28324219 73.83386719 27.44148438 74.16773437 26.57421875 74.51171875 C25.76855469 74.82753906 24.96289062 75.14335938 24.1328125 75.46875 C23.38918457 75.76201172 22.64555664 76.05527344 21.87939453 76.35742188 C20 77 20 77 18 77 C18 70.73 18 64.46 18 58 C20.413125 57.01 22.82625 56.02 25.3125 55 C26.06829346 54.68675781 26.82408691 54.37351563 27.6027832 54.05078125 C30.55227212 52.85629156 32.7897612 52 36 52 C35.67 41.77 35.34 31.54 35 21 C28.07 23.475 28.07 23.475 21 26 C20.67 30.62 20.34 35.24 20 40 C19.67 40 19.34 40 19 40 C19 35.38 19 30.76 19 26 C17.35 25.67 15.7 25.34 14 25 C9.62413958 23.43536058 5.32472449 21.70367935 1 20 C1 25.61 1 31.22 1 37 C0.67 37 0.34 37 0 37 C0 24.79 0 12.58 0 0 Z " fill="#6A6A6A" transform="translate(0,0)"/>
<path d="M0 0 C2.98039148 0.97556358 5.95930975 1.95525914 8.9375 2.9375 C9.78763672 3.21529297 10.63777344 3.49308594 11.51367188 3.77929688 C12.72700195 4.18051758 12.72700195 4.18051758 13.96484375 4.58984375 C15.08814087 4.95903931 15.08814087 4.95903931 16.23413086 5.33569336 C18 6 18 6 19 7 C19.08631874 8.34267413 19.10706473 9.68974322 19.09765625 11.03515625 C19.09443359 11.84404297 19.09121094 12.65292969 19.08789062 13.48632812 C19.07532227 14.7615332 19.07532227 14.7615332 19.0625 16.0625 C19.05798828 16.91650391 19.05347656 17.77050781 19.04882812 18.65039062 C19.03700373 20.76695663 19.01906769 22.88348685 19 25 C12.76559832 23.41039668 6.83712355 21.72399099 1 19 C1.33 23.95 1.66 28.9 2 34 C7.61 35.98 13.22 37.96 19 40 C19 45.28 19 50.56 19 56 C20.13179688 55.566875 21.26359375 55.13375 22.4296875 54.6875 C23.9113927 54.12482714 25.39316714 53.56233657 26.875 53 C27.62136719 52.71382812 28.36773437 52.42765625 29.13671875 52.1328125 C34.7734375 50 34.7734375 50 37 50 C37 56.27 37 62.54 37 69 C32.7615625 70.7634375 32.7615625 70.7634375 28.4375 72.5625 C27.56150146 72.93705322 26.68550293 73.31160645 25.78295898 73.69750977 C18.47342364 76.63535689 13.37510629 75.73615179 6.0625 72.9375 C4.62583984 72.39416016 4.62583984 72.39416016 3.16015625 71.83984375 C2.44730469 71.56269531 1.73445313 71.28554687 1 71 C1 72.65 1 74.3 1 76 C0.67 76 0.34 76 0 76 C0 73.69 0 71.38 0 69 C4.31931387 69.61611835 8.25208775 70.64238578 12.375 72.0625 C15.159375 73.0215625 15.159375 73.0215625 18 74 C18 68.72 18 63.44 18 58 C16.35 57.67 14.7 57.34 13 57 C8.62413958 55.43536058 4.32472449 53.70367935 0 52 C0 46.72 0 41.44 0 36 C-0.99 35.67 -1.98 35.34 -3 35 C-1.515 34.505 -1.515 34.505 0 34 C0 29.05 0 24.1 0 19 C-6.435 21.475 -6.435 21.475 -13 24 C-13.33 23.34 -13.66 22.68 -14 22 C-7.565 19.525 -7.565 19.525 -1 17 C-0.67 11.39 -0.34 5.78 0 0 Z " fill="#6C6C6C" transform="translate(289,1)"/>
<path d="M0 0 C4.82387067 -0.0229102 9.64755389 -0.04283686 14.47143555 -0.05493164 C16.11369464 -0.05997174 17.75594923 -0.06680378 19.39819336 -0.07543945 C21.75375479 -0.08751926 24.10925709 -0.09323139 26.46484375 -0.09765625 C27.20339096 -0.10281754 27.94193817 -0.10797882 28.7028656 -0.11329651 C30.46898088 -0.1134925 32.23497146 -0.06194719 34 0 C35 1 35 1 35.11352539 4.14282227 C35.11336633 5.53402697 35.10767506 6.92523761 35.09765625 8.31640625 C35.0962413 9.04746078 35.09482635 9.77851532 35.09336853 10.53172302 C35.08775408 12.87535632 35.07519922 15.21889539 35.0625 17.5625 C35.05748686 19.14778508 35.05292363 20.73307166 35.04882812 22.31835938 C35.03777997 26.2122761 35.02050572 30.10612205 35 34 C33.10667466 34.81832722 31.21022267 35.62942268 29.3125 36.4375 C28.25675781 36.88996094 27.20101562 37.34242187 26.11328125 37.80859375 C23 39 23 39 18 40 C17.67 34.72 17.34 29.44 17 24 C8.585 21.03 8.585 21.03 0 18 C0 12.06 0 6.12 0 0 Z " fill="#4D4D4D" transform="translate(182,1)"/>
<path d="M0 0 C23.43 0 46.86 0 71 0 C71 5.61 71 11.22 71 17 C55.43724847 24.68287734 55.43724847 24.68287734 45.43286133 21.31982422 C37.45023171 18.45023171 37.45023171 18.45023171 36 17 C35.92680379 14.30345146 35.90757463 11.63308542 35.9375 8.9375 C35.94201172 8.17888672 35.94652344 7.42027344 35.95117188 6.63867188 C35.9629932 4.75908129 35.98092922 2.87953101 36 1 C34.83082031 1.44472656 33.66164062 1.88945313 32.45703125 2.34765625 C30.90909529 2.91992348 29.36090462 3.49150206 27.8125 4.0625 C27.04357422 4.35705078 26.27464844 4.65160156 25.48242188 4.95507812 C21.26588691 6.49329903 18.38951324 7.53917997 14 6 C12.82824219 5.60683594 11.65648437 5.21367188 10.44921875 4.80859375 C9.19401339 4.3551426 7.94012125 3.89804149 6.6875 3.4375 C6.04232422 3.20353516 5.39714844 2.96957031 4.73242188 2.72851562 C3.15378781 2.15552993 1.57672974 1.57820536 0 1 C0 0.67 0 0.34 0 0 Z " fill="#4D4D4D" transform="translate(218,1)"/>
<path d="M0 0 C0.66 0.33 1.32 0.66 2 1 C2 6.61 2 12.22 2 18 C4.475 18.99 4.475 18.99 7 20 C6.01 20.33 5.02 20.66 4 21 C3.34 20.67 2.68 20.34 2 20 C2 24.95 2 29.9 2 35 C4.289375 35.680625 4.289375 35.680625 6.625 36.375 C10.44871565 37.51178033 14.2112477 38.73708257 18 40 C18.33 35.71 18.66 31.42 19 27 C19.33 27 19.66 27 20 27 C20 32.28 20 37.56 20 43 C13.88940424 41.2177429 7.9317281 39.30678315 2 37 C2 42.28 2 47.56 2 53 C-0.413125 53.99 -2.82625 54.98 -5.3125 56 C-6.06829346 56.31324219 -6.82408691 56.62648437 -7.6027832 56.94921875 C-10.55227212 58.14370844 -12.7897612 59 -16 59 C-16 64.94 -16 70.88 -16 77 C-22.6 74.69 -29.2 72.38 -36 70 C-36 63.73 -36 57.46 -36 51 C-29.50272314 52.70553517 -23.2436684 54.52609365 -17 57 C-17.14063135 54.70800823 -17.28765943 52.41640814 -17.4375 50.125 C-17.51871094 48.84882812 -17.59992188 47.57265625 -17.68359375 46.2578125 C-17.79206027 43.11699848 -17.79206027 43.11699848 -19 41 C-18.34 41 -17.68 41 -17 41 C-17 35.72 -17 30.44 -17 25 C-16.67 25 -16.34 25 -16 25 C-16 30.28 -16 35.56 -16 41 C-8.08 38.03 -8.08 38.03 0 35 C0 23.45 0 11.9 0 0 Z " fill="#6E6E6E" transform="translate(216,0)"/>
<path d="M0 0 C11.22 0 22.44 0 34 0 C34 5.94 34 11.88 34 18 C20.085566 23.73791093 14.06289187 23.35729214 0 18 C0 12.06 0 6.12 0 0 Z " fill="#4D4D4D" transform="translate(38,1)"/>
<path d="M0 0 C0 5.94 0 11.88 0 18 C-15.51362989 25.65862741 -15.51362989 25.65862741 -25.44433594 22.34155273 C-28.31783114 21.28469206 -31.15539404 20.13231888 -34 19 C-34 13.06 -34 7.12 -34 1 C-29.31860768 0.85744537 -24.6372128 0.71498107 -19.95581055 0.57275391 C-18.36205889 0.52430568 -16.76830889 0.47580319 -15.17456055 0.42724609 C-12.88851339 0.35760586 -10.60246045 0.28815845 -8.31640625 0.21875 C-7.59973282 0.19687622 -6.88305939 0.17500244 -6.14466858 0.15246582 C-1.11387171 -0 -1.11387171 -0 0 0 Z " fill="#4D4D4D" transform="translate(506,0)"/>
<path d="M0 0 C11.55 0 23.1 0 35 0 C32.05054406 1.96630396 29.26302526 3.25740853 26 4.625 C24.948125 5.07101563 23.89625 5.51703125 22.8125 5.9765625 C20 7 20 7 17 7 C17 12.28 17 17.56 17 23 C8.585 20.03 8.585 20.03 0 17 C0 11.39 0 5.78 0 0 Z " fill="#4D4D4D" transform="translate(1,1)"/>
<path d="M0 0 C11.22 0 22.44 0 34 0 C30.74394178 2.17070548 27.47441807 3.36117072 23.8125 4.625 C20.4403125 5.800625 20.4403125 5.800625 17 7 C16.67 12.28 16.34 17.56 16 23 C10.63270656 21.40431817 5.31376641 19.77125547 0 18 C0 12.06 0 6.12 0 0 Z " fill="#4D4D4D" transform="translate(363,1)"/>
<path d="M0 0 C11.22 0 22.44 0 34 0 C30.87351251 2.08432499 27.94269132 3.28558611 24.4375 4.625 C22.70306641 5.29402344 22.70306641 5.29402344 20.93359375 5.9765625 C18 7 18 7 16 7 C16 12.28 16 17.56 16 23 C10.16354242 21.34370798 5.48623513 19.74311757 0 17 C0 11.39 0 5.78 0 0 Z " fill="#4D4D4D" transform="translate(146,1)"/>
<path d="M0 0 C6.75133875 1.30671073 12.66282862 3.32232195 19 6 C19 11.94 19 17.88 19 24 C12.0835626 22.84726043 6.50733758 20.58965475 0 18 C0 12.06 0 6.12 0 0 Z " fill="#565656" transform="translate(506,89)"/>
<path d="M0 0 C0 5.28 0 10.56 0 16 C-3.3721875 17.2375 -3.3721875 17.2375 -6.8125 18.5 C-7.86787964 18.89155273 -7.86787964 18.89155273 -8.94458008 19.29101562 C-11.77636374 20.31587486 -13.96564252 21 -17 21 C-17 16.05 -17 11.1 -17 6 C-14.5433053 4.99580363 -12.08481647 3.99649499 -9.625 3 C-8.92632812 2.71382812 -8.22765625 2.42765625 -7.5078125 2.1328125 C-2.2265625 0 -2.2265625 0 0 0 Z " fill="#4E4E4E" transform="translate(325,53)"/>
<path d="M0 0 C5.61 1.98 11.22 3.96 17 6 C17 10.95 17 15.9 17 21 C10.33967317 20.04852474 6.07036899 18.57782793 0 16 C0 10.72 0 5.44 0 0 Z " fill="#4E4E4E" transform="translate(182,53)"/>
<path d="M0 0 C0 5.28 0 10.56 0 16 C-3.3721875 17.2375 -3.3721875 17.2375 -6.8125 18.5 C-7.86787964 18.89155273 -7.86787964 18.89155273 -8.94458008 19.29101562 C-11.77636374 20.31587486 -13.96564252 21 -17 21 C-17 16.05 -17 11.1 -17 6 C-14.5433053 4.99580363 -12.08481647 3.99649499 -9.625 3 C-8.92632813 2.71382812 -8.22765625 2.42765625 -7.5078125 2.1328125 C-2.2265625 0 -2.2265625 0 0 0 Z " fill="#4E4E4E" transform="translate(542,53)"/>
<path d="M0 0 C0 4.95 0 9.9 0 15 C-11.375 19.875 -11.375 19.875 -17 21 C-17 16.05 -17 11.1 -17 6 C-2.69230769 0 -2.69230769 0 0 0 Z " fill="#4E4E4E" transform="translate(145,20)"/>
<path d="M0 0 C5.87099194 1.68891549 11.44428147 3.46369371 17 6 C17 10.95 17 15.9 17 21 C11.12900806 19.31108451 5.55571853 17.53630629 0 15 C0 10.05 0 5.1 0 0 Z " fill="#4E4E4E" transform="translate(146,37)"/>
<path d="M0 0 C5.61 1.98 11.22 3.96 17 6 C17 10.95 17 15.9 17 21 C10.73375008 19.39522868 5.84044472 17.92022236 0 15 C0 10.05 0 5.1 0 0 Z " fill="#4E4E4E" transform="translate(110,20)"/>
<path d="M0 0 C5.72127814 1.87729439 11.37481909 3.85220365 17 6 C17 10.95 17 15.9 17 21 C11.12900806 19.31108451 5.55571853 17.53630629 0 15 C0 10.05 0 5.1 0 0 Z " fill="#4E4E4E" transform="translate(507,3)"/>
<path d="M0 0 C5.72127814 1.87729439 11.37481909 3.85220365 17 6 C17 10.95 17 15.9 17 21 C11.12900806 19.31108451 5.55571853 17.53630629 0 15 C0 10.05 0 5.1 0 0 Z " fill="#4E4E4E" transform="translate(290,3)"/>
<path d="M0 0 C5.87099194 1.68891549 11.44428147 3.46369371 17 6 C17 10.95 17 15.9 17 21 C8.585 18.03 8.585 18.03 0 15 C0 10.05 0 5.1 0 0 Z " fill="#4D4D4D" transform="translate(543,72)"/>
<path d="M0 0 C5.87099194 1.68891549 11.44428147 3.46369371 17 6 C17 10.95 17 15.9 17 21 C11.27872186 19.12270561 5.62518091 17.14779635 0 15 C0 10.05 0 5.1 0 0 Z " fill="#4D4D4D" transform="translate(326,20)"/>
<path d="M0 0 C5.72127814 1.87729439 11.37481909 3.85220365 17 6 C17 10.95 17 15.9 17 21 C11.12900806 19.31108451 5.55571853 17.53630629 0 15 C0 10.05 0 5.1 0 0 Z " fill="#4E4E4E" transform="translate(435,3)"/>
<path d="M0 0 C5.72127814 1.87729439 11.37481909 3.85220365 17 6 C17 10.95 17 15.9 17 21 C11.12900806 19.31108451 5.55571853 17.53630629 0 15 C0 10.05 0 5.1 0 0 Z " fill="#4E4E4E" transform="translate(218,3)"/>
<path d="M0 0 C5.87099194 1.68891549 11.44428147 3.46369371 17 6 C17 10.95 17 15.9 17 21 C14.54105116 20.18932465 12.08283312 19.37654509 9.625 18.5625 C8.92632812 18.33240234 8.22765625 18.10230469 7.5078125 17.86523438 C2.2265625 16.11328125 2.2265625 16.11328125 0 15 C0 10.05 0 5.1 0 0 Z " fill="#4D4D4D" transform="translate(218,20)"/>
<path d="M0 0 C5.87099194 1.68891549 11.44428147 3.46369371 17 6 C17 10.95 17 15.9 17 21 C8.585 18.03 8.585 18.03 0 15 C0 10.05 0 5.1 0 0 Z " fill="#4E4E4E" transform="translate(435,20)"/>
<path d="M0 0 C5.61 1.98 11.22 3.96 17 6 C17 10.95 17 15.9 17 21 C11.27872186 19.12270561 5.62518091 17.14779635 0 15 C0 10.05 0 5.1 0 0 Z " fill="#4E4E4E" transform="translate(182,20)"/>
<path d="M0 0 C5.61 1.98 11.22 3.96 17 6 C17 10.95 17 15.9 17 21 C11.27872186 19.12270561 5.62518091 17.14779635 0 15 C0 10.05 0 5.1 0 0 Z " fill="#4E4E4E" transform="translate(38,37)"/>
<path d="M0 0 C0 4.95 0 9.9 0 15 C-3.3721875 16.2375 -3.3721875 16.2375 -6.8125 17.5 C-7.86787964 17.89155273 -7.86787964 17.89155273 -8.94458008 18.29101562 C-11.77636374 19.31587486 -13.96564252 20 -17 20 C-17 15.38 -17 10.76 -17 6 C-2.69230769 0 -2.69230769 0 0 0 Z " fill="#4E4E4E" transform="translate(217,37)"/>
<path d="M0 0 C5.87099194 1.68891549 11.44428147 3.46369371 17 6 C17 10.62 17 15.24 17 20 C10.80597304 18.96766217 5.84849608 17.21101681 0 15 C0 10.05 0 5.1 0 0 Z " fill="#4E4E4E" transform="translate(507,37)"/>
<path d="M0 0 C5.85659906 1.66153012 11.4590134 3.47041916 17 6 C17 10.95 17 15.9 17 21 C14.35290841 20.02412745 11.70732553 19.04447855 9.0625 18.0625 C8.30775391 17.78470703 7.55300781 17.50691406 6.77539062 17.22070312 C1.11328125 15.11328125 1.11328125 15.11328125 0 14 C-0.07271741 11.64686445 -0.08370868 9.29166332 -0.0625 6.9375 C-0.05347656 5.64714844 -0.04445313 4.35679688 -0.03515625 3.02734375 C-0.02355469 2.02832031 -0.01195312 1.02929688 0 0 Z " fill="#4E4E4E" transform="translate(471,37)"/>
<path d="M0 0 C5.87099194 1.68891549 11.44428147 3.46369371 17 6 C17 10.62 17 15.24 17 20 C10.80597304 18.96766217 5.84849608 17.21101681 0 15 C0 10.05 0 5.1 0 0 Z " fill="#4E4E4E" transform="translate(290,37)"/>
<path d="M0 0 C5.85659906 1.66153012 11.4590134 3.47041916 17 6 C17 10.95 17 15.9 17 21 C14.35290841 20.02412745 11.70732553 19.04447855 9.0625 18.0625 C8.30775391 17.78470703 7.55300781 17.50691406 6.77539062 17.22070312 C1.11328125 15.11328125 1.11328125 15.11328125 0 14 C-0.07271741 11.64686445 -0.08370868 9.29166332 -0.0625 6.9375 C-0.05347656 5.64714844 -0.04445312 4.35679688 -0.03515625 3.02734375 C-0.02355469 2.02832031 -0.01195312 1.02929688 0 0 Z " fill="#4E4E4E" transform="translate(254,37)"/>
<path d="M0 0 C0 5.28 0 10.56 0 16 C-12.625 21 -12.625 21 -16 21 C-16 16.05 -16 11.1 -16 6 C-13.7101766 4.9955866 -11.4183401 3.99632388 -9.125 3 C-8.14853516 2.57074219 -8.14853516 2.57074219 -7.15234375 2.1328125 C-2.2265625 0 -2.2265625 0 0 0 Z " fill="#4D4D4D" transform="translate(253,53)"/>
<path d="M0 0 C0 5.28 0 10.56 0 16 C-12.625 21 -12.625 21 -16 21 C-16 16.05 -16 11.1 -16 6 C-1.69230769 0 -1.69230769 0 0 0 Z " fill="#4D4D4D" transform="translate(397,53)"/>
<path d="M0 0 C5.28 1.98 10.56 3.96 16 6 C16 10.95 16 15.9 16 21 C10.34212726 19.86842545 5.40194241 18.01759295 0 16 C0 10.72 0 5.44 0 0 Z " fill="#4D4D4D" transform="translate(399,53)"/>
<path d="M0 0 C0 4.95 0 9.9 0 15 C-5.28 16.98 -10.56 18.96 -16 21 C-16 15.72 -16 10.44 -16 5 C-3.375 0 -3.375 0 0 0 Z " fill="#4D4D4D" transform="translate(36,54)"/>
<path d="M0 0 C0 5.28 0 10.56 0 16 C-12.625 21 -12.625 21 -16 21 C-16 16.05 -16 11.1 -16 6 C-13.52165356 4.9979249 -11.04238664 3.99824992 -8.5625 3 C-7.85544922 2.71382812 -7.14839844 2.42765625 -6.41992188 2.1328125 C-1.11328125 0 -1.11328125 0 0 0 Z " fill="#4D4D4D" transform="translate(470,53)"/>
<path d="M0 0 C0 5.28 0 10.56 0 16 C-12.625 21 -12.625 21 -16 21 C-16 16.05 -16 11.1 -16 6 C-13.52165356 4.9979249 -11.04238664 3.99824992 -8.5625 3 C-7.85544922 2.71382812 -7.14839844 2.42765625 -6.41992188 2.1328125 C-1.11328125 0 -1.11328125 0 0 0 Z " fill="#4D4D4D" transform="translate(108,53)"/>
<path d="M0 0 C5.46737191 1.74807129 10.75824848 3.65794081 16 6 C16 10.95 16 15.9 16 21 C13.51960151 20.19110952 11.04069788 19.37808099 8.5625 18.5625 C7.85544922 18.33240234 7.14839844 18.10230469 6.41992188 17.86523438 C1.11328125 16.11328125 1.11328125 16.11328125 0 15 C-0.07313567 12.46950598 -0.09247527 9.96695163 -0.0625 7.4375 C-0.05798828 6.72658203 -0.05347656 6.01566406 -0.04882812 5.28320312 C-0.03700864 3.52209987 -0.01907263 1.76103964 0 0 Z " fill="#4D4D4D" transform="translate(363,37)"/>
<path d="M0 0 C0 4.95 0 9.9 0 15 C-11.5 19.875 -11.5 19.875 -16 21 C-16 16.05 -16 11.1 -16 6 C-1.69230769 0 -1.69230769 0 0 0 Z " fill="#4D4D4D" transform="translate(361,20)"/>
<path d="M0 0 C0 4.95 0 9.9 0 15 C-2.47834644 16.0020751 -4.95761336 17.00175008 -7.4375 18 C-8.49807617 18.42925781 -8.49807617 18.42925781 -9.58007812 18.8671875 C-14.88671875 21 -14.88671875 21 -16 21 C-16 16.05 -16 11.1 -16 6 C-12.94010417 4.73046875 -9.88020833 3.4609375 -6.8203125 2.19140625 C-1.63278689 0 -1.63278689 0 0 0 Z " fill="#4D4D4D" transform="translate(506,20)"/>
<path d="M0 0 C5.28 1.98 10.56 3.96 16 6 C16 10.95 16 15.9 16 21 C13.51960151 20.19110952 11.04069788 19.37808099 8.5625 18.5625 C7.85544922 18.33240234 7.14839844 18.10230469 6.41992188 17.86523438 C1.11328125 16.11328125 1.11328125 16.11328125 0 15 C-0.07320163 12.4672235 -0.09227569 9.96896082 -0.0625 7.4375 C-0.041875 4.983125 -0.02125 2.52875 0 0 Z " fill="#4D4D4D" transform="translate(472,20)"/>
<path d="M0 0 C0 4.95 0 9.9 0 15 C-5.28 16.98 -10.56 18.96 -16 21 C-16 16.05 -16 11.1 -16 6 C-12.94010417 4.73046875 -9.88020833 3.4609375 -6.8203125 2.19140625 C-1.63278689 0 -1.63278689 0 0 0 Z " fill="#4D4D4D" transform="translate(289,20)"/>
<path d="M0 0 C2.48039849 0.80889048 4.95930212 1.62191901 7.4375 2.4375 C8.14455078 2.66759766 8.85160156 2.89769531 9.58007812 3.13476562 C14.88671875 4.88671875 14.88671875 4.88671875 16 6 C16.07313567 8.53049402 16.09247527 11.03304837 16.0625 13.5625 C16.05798828 14.27341797 16.05347656 14.98433594 16.04882812 15.71679688 C16.03700864 17.47790013 16.01907263 19.23896036 16 21 C13.51960151 20.19110952 11.04069788 19.37808099 8.5625 18.5625 C7.85544922 18.33240234 7.14839844 18.10230469 6.41992188 17.86523438 C1.11328125 16.11328125 1.11328125 16.11328125 0 15 C-0.07313567 12.46950598 -0.09247527 9.96695163 -0.0625 7.4375 C-0.05798828 6.72658203 -0.05347656 6.01566406 -0.04882812 5.28320312 C-0.03700864 3.52209987 -0.01907263 1.76103964 0 0 Z " fill="#4D4D4D" transform="translate(38,20)"/>
<path d="M0 0 C0 4.95 0 9.9 0 15 C-11.5 19.875 -11.5 19.875 -16 21 C-16 16.05 -16 11.1 -16 6 C-13.52165356 4.9979249 -11.04238664 3.99824992 -8.5625 3 C-7.85544922 2.71382813 -7.14839844 2.42765625 -6.41992188 2.1328125 C-1.11328125 0 -1.11328125 0 0 0 Z " fill="#4D4D4D" transform="translate(470,3)"/>
<path d="M0 0 C0 4.95 0 9.9 0 15 C-11.5 19.875 -11.5 19.875 -16 21 C-16 16.05 -16 11.1 -16 6 C-13.52165356 4.9979249 -11.04238664 3.99824992 -8.5625 3 C-7.85544922 2.71382813 -7.14839844 2.42765625 -6.41992188 2.1328125 C-1.11328125 0 -1.11328125 0 0 0 Z " fill="#4D4D4D" transform="translate(361,3)"/>
<path d="M0 0 C4.07277988 0.56732271 7.58462115 1.47463859 11.375 3.0625 C13.664375 4.0215625 13.664375 4.0215625 16 5 C16 9.95 16 14.9 16 20 C13.51960151 19.19110952 11.04069788 18.37808099 8.5625 17.5625 C7.85544922 17.33240234 7.14839844 17.10230469 6.41992188 16.86523438 C1.11328125 15.11328125 1.11328125 15.11328125 0 14 C-0.07271741 11.64686445 -0.08370868 9.29166332 -0.0625 6.9375 C-0.05347656 5.64714844 -0.04445313 4.35679688 -0.03515625 3.02734375 C-0.02355469 2.02832031 -0.01195312 1.02929688 0 0 Z " fill="#4D4D4D" transform="translate(399,21)"/>
<path d="M0 0 C0 4.62 0 9.24 0 14 C-1.340625 14.61875 -2.68125 15.2375 -4.0625 15.875 C-4.81660156 16.22304688 -5.57070313 16.57109375 -6.34765625 16.9296875 C-9.47864058 18.19314804 -12.75360759 19.07245931 -16 20 C-16 15.05 -16 10.1 -16 5 C-3.375 0 -3.375 0 0 0 Z " fill="#4D4D4D" transform="translate(36,4)"/>
<path d="M0 0 C5.73058676 1.14611735 10.71024662 2.52394523 16 5 C16 9.95 16 14.9 16 20 C10.63270656 18.40431817 5.31376641 16.77125547 0 15 C0 10.05 0 5.1 0 0 Z " fill="#4D4D4D" transform="translate(74,4)"/>
<path d="M0 0 C0 4.95 0 9.9 0 15 C-11.5 19.875 -11.5 19.875 -16 21 C-16 16.05 -16 11.1 -16 6 C-13.52165356 4.9979249 -11.04238664 3.99824992 -8.5625 3 C-7.85544922 2.71382812 -7.14839844 2.42765625 -6.41992188 2.1328125 C-1.11328125 0 -1.11328125 0 0 0 Z " fill="#4D4D4D" transform="translate(72,20)"/>
<path d="M0 0 C5.69139902 1.09698167 10.74567937 2.54053077 16 5 C16 9.95 16 14.9 16 20 C13.51960151 19.19110952 11.04069788 18.37808099 8.5625 17.5625 C7.85544922 17.33240234 7.14839844 17.10230469 6.41992188 16.86523438 C1.11328125 15.11328125 1.11328125 15.11328125 0 14 C-0.07271741 11.64686445 -0.08370868 9.29166332 -0.0625 6.9375 C-0.05347656 5.64714844 -0.04445312 4.35679688 -0.03515625 3.02734375 C-0.02355469 2.02832031 -0.01195312 1.02929688 0 0 Z " fill="#4D4D4D" transform="translate(255,21)"/>
<path d="M0 0 C0 4.95 0 9.9 0 15 C-3.403125 16.2375 -3.403125 16.2375 -6.875 17.5 C-7.94403564 17.89155273 -7.94403564 17.89155273 -9.03466797 18.29101562 C-13.77777778 20 -13.77777778 20 -16 20 C-16 15.05 -16 10.1 -16 5 C-3.375 0 -3.375 0 0 0 Z " fill="#4D4D4D" transform="translate(144,4)"/>
<path d="M0 0 C0.33 0 0.66 0 1 0 C1 4.95 1 9.9 1 15 C2.13179687 14.566875 3.26359375 14.13375 4.4296875 13.6875 C5.9113927 13.12482714 7.39316714 12.56233657 8.875 12 C9.62136719 11.71382812 10.36773438 11.42765625 11.13671875 11.1328125 C16.7734375 9 16.7734375 9 19 9 C19.33 15.27 19.66 21.54 20 28 C25.94 29.98 31.88 31.96 38 34 C38 40.6 38 47.2 38 54 C34.85291716 52.85750452 31.70732422 51.71118133 28.5625 50.5625 C27.66466797 50.23701172 26.76683594 49.91152344 25.84179688 49.57617188 C24.98779297 49.26357422 24.13378906 48.95097656 23.25390625 48.62890625 C22.06776733 48.1968689 22.06776733 48.1968689 20.85766602 47.75610352 C19 47 19 47 18 46 C17.91368126 44.65732587 17.89293527 43.31025678 17.90234375 41.96484375 C17.90556641 41.15595703 17.90878906 40.34707031 17.91210938 39.51367188 C17.92048828 38.66353516 17.92886719 37.81339844 17.9375 36.9375 C17.94201172 36.08349609 17.94652344 35.22949219 17.95117188 34.34960938 C17.96299627 32.23304337 17.98093231 30.11651315 18 28 C16.55367187 28.63228516 16.55367187 28.63228516 15.078125 29.27734375 C13.80215324 29.83089032 12.52610767 30.38426681 11.25 30.9375 C10.29867187 31.35418945 10.29867187 31.35418945 9.328125 31.77929688 C6.24245328 33.11320704 3.27235881 34.24459916 0 35 C-0.83375798 23.19911778 -1.0574223 11.79432563 0 0 Z M8.375 14 C7.66859375 14.28617188 6.9621875 14.57234375 6.234375 14.8671875 C4.48833081 15.57504325 2.7440005 16.28712388 1 17 C1 21.95 1 26.9 1 32 C6.94935584 30.7915371 12.36444167 29.25422333 18 27 C18 21.72 18 16.44 18 11 C14.57352246 11 11.51006202 12.71589711 8.375 14 Z M19 30 C19 34.95 19 39.9 19 45 C24.61 46.98 30.22 48.96 36 51 C36 46.05 36 41.1 36 36 C33.5433053 34.99580363 31.08481647 33.99649499 28.625 33 C27.92632813 32.71382812 27.22765625 32.42765625 26.5078125 32.1328125 C22.87114039 30.55475601 22.87114039 30.55475601 19 30 Z " fill="#6B6B6B" transform="translate(524,42)"/>
<path d="M0 0 C5.28 1.98 10.56 3.96 16 6 C16 10.95 16 15.9 16 21 C10.72 19.02 5.44 17.04 0 15 C0 10.05 0 5.1 0 0 Z " fill="#4D4D4D" transform="translate(363,20)"/>
<path d="M0 0 C0 4.95 0 9.9 0 15 C-11.5 19.875 -11.5 19.875 -16 21 C-16 16.05 -16 11.1 -16 6 C-13.52165356 4.9979249 -11.04238664 3.99824992 -8.5625 3 C-7.85544922 2.71382813 -7.14839844 2.42765625 -6.41992188 2.1328125 C-1.11328125 0 -1.11328125 0 0 0 Z " fill="#4D4D4D" transform="translate(253,3)"/>
<path d="M0 0 C0 4.95 0 9.9 0 15 C-3.403125 16.2375 -3.403125 16.2375 -6.875 17.5 C-7.94403564 17.89155273 -7.94403564 17.89155273 -9.03466797 18.29101562 C-13.77777778 20 -13.77777778 20 -16 20 C-16 15.38 -16 10.76 -16 6 C-2.6 0 -2.6 0 0 0 Z " fill="#4D4D4D" transform="translate(434,37)"/>
<path d="M0 0 C0 4.95 0 9.9 0 15 C-12.625 20 -12.625 20 -16 20 C-16 15.38 -16 10.76 -16 6 C-2.92307692 0 -2.92307692 0 0 0 Z " fill="#4D4D4D" transform="translate(361,37)"/>
<path d="M0 0 C2.48039849 0.80889048 4.95930212 1.62191901 7.4375 2.4375 C8.14455078 2.66759766 8.85160156 2.89769531 9.58007812 3.13476562 C14.88671875 4.88671875 14.88671875 4.88671875 16 6 C16.07271741 8.35313555 16.08370868 10.70833668 16.0625 13.0625 C16.05347656 14.35285156 16.04445312 15.64320312 16.03515625 16.97265625 C16.02355469 17.97167969 16.01195312 18.97070312 16 20 C10.30860098 18.90301833 5.25432063 17.45946923 0 15 C0 10.05 0 5.1 0 0 Z " fill="#4D4D4D" transform="translate(146,20)"/>
<path d="M0 0 C0 4.62 0 9.24 0 14 C-11.5 18.875 -11.5 18.875 -16 20 C-16 15.05 -16 10.1 -16 5 C-3.375 0 -3.375 0 0 0 Z " fill="#4D4D4D" transform="translate(180,4)"/>
<path d="M0 0 C5.83645758 1.65629202 10.51376487 3.25688243 16 6 C16 10.62 16 15.24 16 20 C10.34212726 18.86842545 5.40194241 17.01759295 0 15 C0 10.05 0 5.1 0 0 Z " fill="#4D4D4D" transform="translate(74,37)"/>
<path d="M0 0 C0 4.95 0 9.9 0 15 C-12.625 20 -12.625 20 -16 20 C-16 15.38 -16 10.76 -16 6 C-1.69230769 0 -1.69230769 0 0 0 Z " fill="#4D4D4D" transform="translate(144,37)"/>
<path d="M0 0 C0 4.95 0 9.9 0 15 C-12.625 20 -12.625 20 -16 20 C-16 15.38 -16 10.76 -16 6 C-12.66666667 4.66666667 -9.33333333 3.33333333 -6 2 C-5.08605469 1.62617187 -4.17210937 1.25234375 -3.23046875 0.8671875 C-1 0 -1 0 0 0 Z " fill="#4D4D4D" transform="translate(397,3)"/>
<path d="M0 0 C6.93 2.64 13.86 5.28 21 8 C21 19.55 21 31.1 21 43 C16.20669107 42.20111518 12.63283885 41.24765322 8.1875 39.5 C6.47626953 38.83484375 6.47626953 38.83484375 4.73046875 38.15625 C2 37 2 37 1 36 C0.83996512 33.33573315 0.74057111 30.69439572 0.68359375 28.02734375 C0.66281265 27.22970108 0.64203156 26.43205841 0.62062073 25.61024475 C0.55503842 23.05275389 0.49620033 20.4951572 0.4375 17.9375 C0.39432301 16.20767118 0.35070899 14.47785321 0.30664062 12.74804688 C0.19852261 8.49880496 0.09951465 4.24948711 0 0 Z M2 3 C2 7.95 2 12.9 2 18 C4.4566947 19.00419637 6.91518353 20.00350501 9.375 21 C10.42300781 21.42925781 10.42300781 21.42925781 11.4921875 21.8671875 C15.12885961 23.44524399 15.12885961 23.44524399 19 24 C19 19.05 19 14.1 19 9 C16.5433053 7.99580363 14.08481647 6.99649499 11.625 6 C10.92632812 5.71382813 10.22765625 5.42765625 9.5078125 5.1328125 C5.87114039 3.55475601 5.87114039 3.55475601 2 3 Z M2 20 C2 24.95 2 29.9 2 35 C7.61 36.98 13.22 38.96 19 41 C19 36.05 19 31.1 19 26 C16.5433053 24.99580363 14.08481647 23.99649499 11.625 23 C10.92632812 22.71382812 10.22765625 22.42765625 9.5078125 22.1328125 C5.87114039 20.55475601 5.87114039 20.55475601 2 20 Z " fill="#787878" transform="translate(433,0)"/>
<path d="M0 0 C11.55 0 23.1 0 35 0 C29.13501378 3.90999082 21.24122358 8.29268861 14 7.79296875 C11.5377731 7.03102963 9.32750417 6.10101067 7 5 C5.02 4.34 3.04 3.68 1 3 C1 7.62 1 12.24 1 17 C0.67 17 0.34 17 0 17 C0 11.39 0 5.78 0 0 Z " fill="#555555" transform="translate(1,1)"/>
<path d="M0 0 C0 5.94 0 11.88 0 18 C-8.88671875 21.7109375 -8.88671875 21.7109375 -12 23 C-12.89332031 23.38414063 -13.78664063 23.76828125 -14.70703125 24.1640625 C-17 25 -17 25 -20 25 C-20 19.06 -20 13.12 -20 7 C-11.11328125 3.2890625 -11.11328125 3.2890625 -8 2 C-7.10667969 1.61585937 -6.21335937 1.23171875 -5.29296875 0.8359375 C-3 0 -3 0 0 0 Z M-10 4.4375 C-10.65484375 4.66759766 -11.3096875 4.89769531 -11.984375 5.13476562 C-15.24554596 6.12501598 -15.24554596 6.12501598 -18 8 C-18.07313567 10.53049402 -18.09247527 13.03304837 -18.0625 15.5625 C-18.05798828 16.27341797 -18.05347656 16.98433594 -18.04882812 17.71679688 C-18.03700864 19.47790013 -18.01907263 21.23896036 -18 23 C-12.53262809 21.25192871 -7.24175152 19.34205919 -2 17 C-2 12.05 -2 7.1 -2 2 C-4.63990206 2 -7.50374555 3.54562956 -10 4.4375 Z " fill="#686868" transform="translate(363,68)"/>
<path d="M0 0 C7.13356752 1.18892792 13.2145397 3.50346272 20 6 C20 11.94 20 17.88 20 24 C12.86643248 22.81107208 6.7854603 20.49653728 0 18 C0 12.06 0 6.12 0 0 Z M2 2 C2 6.62 2 11.24 2 16 C4.0109375 16.928125 4.0109375 16.928125 6.0625 17.875 C6.81660156 18.22304687 7.57070312 18.57109375 8.34765625 18.9296875 C11.47864058 20.19314804 14.75360759 21.07245931 18 22 C18 17.05 18 12.1 18 7 C15.73125 6.175 13.4625 5.35 11.125 4.5 C10.05596436 4.10844727 10.05596436 4.10844727 8.96533203 3.70898438 C5.56902012 2.42838203 5.56902012 2.42838203 2 2 Z " fill="#686868" transform="translate(72,89)"/>
<path d="M0 0 C0.33 0 0.66 0 1 0 C1 5.94 1 11.88 1 18 C2.52625 18.45375 4.0525 18.9075 5.625 19.375 C9.44871565 20.51178033 13.2112477 21.73708257 17 23 C17.33 18.05 17.66 13.1 18 8 C18.99 8.33 19.98 8.66 21 9 C20.67 13.95 20.34 18.9 20 24 C20.99 24.33 21.98 24.66 23 25 C22.34 25.33 21.68 25.66 21 26 C20.52998967 29.27555608 20.52998967 29.27555608 20.375 33.0625 C20.30023437 34.35285156 20.22546875 35.64320312 20.1484375 36.97265625 C20.09945313 37.97167969 20.05046875 38.97070312 20 40 C19.67 40 19.34 40 19 40 C19 35.38 19 30.76 19 26 C17.35 25.67 15.7 25.34 14 25 C9.62413958 23.43536058 5.32472449 21.70367935 1 20 C1 25.61 1 31.22 1 37 C0.67 37 0.34 37 0 37 C0 24.79 0 12.58 0 0 Z " fill="#979797" transform="translate(0,0)"/>
<path d="M0 0 C11.22 0 22.44 0 34 0 C28.58253937 3.61164042 21.8667589 7.32943058 15.203125 6.76171875 C12.69598847 6.00257027 10.38469415 5.08100736 8 4 C6.46104933 3.43011125 4.91955335 2.86702441 3.375 2.3125 C2.26125 1.879375 1.1475 1.44625 0 1 C0 0.67 0 0.34 0 0 Z " fill="#4E4E4E" transform="translate(436,1)"/>
<path d="M0 0 C2.20881138 0.62330842 4.41702865 1.24872241 6.625 1.875 C7.85476563 2.22304688 9.08453125 2.57109375 10.3515625 2.9296875 C13.59013875 3.87976233 16.79813859 4.93271286 20 6 C20 12.6 20 19.2 20 26 C16.85291716 24.85750452 13.70732422 23.71118133 10.5625 22.5625 C9.21575195 22.07426758 9.21575195 22.07426758 7.84179688 21.57617188 C6.98779297 21.26357422 6.13378906 20.95097656 5.25390625 20.62890625 C4.46314697 20.34088135 3.6723877 20.05285645 2.85766602 19.75610352 C1 19 1 19 0 18 C-0.08631874 16.65732587 -0.10706473 15.31025678 -0.09765625 13.96484375 C-0.09443359 13.15595703 -0.09121094 12.34707031 -0.08789062 11.51367188 C-0.07951172 10.66353516 -0.07113281 9.81339844 -0.0625 8.9375 C-0.05798828 8.08349609 -0.05347656 7.22949219 -0.04882812 6.34960938 C-0.03700373 4.23304337 -0.01906769 2.11651315 0 0 Z M1 2 C1 6.95 1 11.9 1 17 C6.61 18.98 12.22 20.96 18 23 C18 18.05 18 13.1 18 8 C15.5433053 6.99580363 13.08481647 5.99649499 10.625 5 C9.92632813 4.71382812 9.22765625 4.42765625 8.5078125 4.1328125 C4.87114039 2.55475601 4.87114039 2.55475601 1 2 Z " fill="#828282" transform="translate(542,18)"/>
<path d="M0 0 C0 6.27 0 12.54 0 19 C-2.578125 19.99 -5.15625 20.98 -7.8125 22 C-8.62050049 22.31324219 -9.42850098 22.62648438 -10.26098633 22.94921875 C-11.22427856 23.31466797 -11.22427856 23.31466797 -12.20703125 23.6875 C-12.8616333 23.93886719 -13.51623535 24.19023438 -14.19067383 24.44921875 C-16 25 -16 25 -19 25 C-19 19.06 -19 13.12 -19 7 C-16.82012703 6.02744129 -14.63984585 5.05578218 -12.45703125 4.08984375 C-10.95145377 3.42202799 -9.44823756 2.74881672 -7.94921875 2.06640625 C-5.10699374 0.79440405 -3.15331064 0 0 0 Z M-9.5625 4.4375 C-10.73941406 4.88996094 -11.91632813 5.34242187 -13.12890625 5.80859375 C-15.85136503 6.72400164 -15.85136503 6.72400164 -17 8 C-17.07313567 10.53049402 -17.09247527 13.03304837 -17.0625 15.5625 C-17.05798828 16.27341797 -17.05347656 16.98433594 -17.04882812 17.71679688 C-17.03700864 19.47790013 -17.01907263 21.23896036 -17 23 C-11.53262809 21.25192871 -6.24175152 19.34205919 -1 17 C-1 12.05 -1 7.1 -1 2 C-4.11777494 2 -6.67061331 3.31693359 -9.5625 4.4375 Z " fill="#6A6A6A" transform="translate(398,91)"/>
<path d="M0 0 C0 5.94 0 11.88 0 18 C-6.55599111 21.11409578 -11.85196341 23.21299085 -19 25 C-19 19.06 -19 13.12 -19 7 C-5 0 -5 0 0 0 Z M-10.5625 5 C-11.27341797 5.28617187 -11.98433594 5.57234375 -12.71679688 5.8671875 C-14.47848296 6.57659129 -16.23932082 7.28810084 -18 8 C-18 12.95 -18 17.9 -18 23 C-16.47375 22.566875 -14.9475 22.13375 -13.375 21.6875 C-12.51648438 21.44386719 -11.65796875 21.20023438 -10.7734375 20.94921875 C-7.37918845 19.85645773 -7.37918845 19.85645773 -2 17 C-2 12.05 -2 7.1 -2 2 C-4.78041573 2 -7.96021076 3.94674893 -10.5625 5 Z " fill="#6D6D6D" transform="translate(146,68)"/>
<path d="M0 0 C0 5.61 0 11.22 0 17 C-2.35125 18.010625 -4.7025 19.02125 -7.125 20.0625 C-7.85348145 20.38484619 -8.58196289 20.70719238 -9.33251953 21.03930664 C-13.60726391 22.81030529 -16.38317583 23.25848011 -21 22 C-20.34 21.67 -19.68 21.34 -19 21 C-19.03480469 20.02417969 -19.06960938 19.04835938 -19.10546875 18.04296875 C-19.13253906 16.77066406 -19.15960938 15.49835937 -19.1875 14.1875 C-19.22230469 12.92292969 -19.25710938 11.65835938 -19.29296875 10.35546875 C-19 7 -19 7 -17.9296875 5.22265625 C-15.10061912 3.43014936 -12.08584107 2.3325425 -8.9375 1.25 C-8.30005859 1.01667969 -7.66261719 0.78335938 -7.00585938 0.54296875 C-2.25687036 -1.12843518 -2.25687036 -1.12843518 0 0 Z M-9.5625 3.4375 C-10.73941406 3.88996094 -11.91632813 4.34242187 -13.12890625 4.80859375 C-15.85136503 5.72400164 -15.85136503 5.72400164 -17 7 C-17.07271741 9.35313555 -17.08370868 11.70833668 -17.0625 14.0625 C-17.05347656 15.35285156 -17.04445313 16.64320312 -17.03515625 17.97265625 C-17.02355469 18.97167969 -17.01195312 19.97070312 -17 21 C-15.26982492 20.54548816 -13.54090123 20.08621143 -11.8125 19.625 C-10.84957031 19.36976562 -9.88664062 19.11453125 -8.89453125 18.8515625 C-5.60586093 17.93344479 -5.60586093 17.93344479 -1 16 C-1 11.05 -1 6.1 -1 1 C-4.11777494 1 -6.67061331 2.31693359 -9.5625 3.4375 Z " fill="#5B5B5B" transform="translate(435,36)"/>
<path d="M0 0 C0 5.94 0 11.88 0 18 C-2.97838535 19.16869575 -5.95765087 20.33504766 -8.9375 21.5 C-9.78763672 21.83386719 -10.63777344 22.16773437 -11.51367188 22.51171875 C-12.32255859 22.82753906 -13.13144531 23.14335938 -13.96484375 23.46875 C-15.08814087 23.90864258 -15.08814087 23.90864258 -16.23413086 24.35742188 C-18 25 -18 25 -19 25 C-19.02697137 22.39576408 -19.04682489 19.79180756 -19.0625 17.1875 C-19.07087891 16.44951172 -19.07925781 15.71152344 -19.08789062 14.95117188 C-19.10259828 11.70077932 -19.03531702 9.10595105 -18 6 C-15.35053805 4.79409871 -12.79925459 3.77048238 -10.0625 2.8125 C-9.32064453 2.53986328 -8.57878906 2.26722656 -7.81445312 1.98632812 C-2.32342575 0 -2.32342575 0 0 0 Z M-10.125 4.5 C-13.528125 5.7375 -13.528125 5.7375 -17 7 C-17 11.95 -17 16.9 -17 22 C-11.48423659 20.53799042 -6.30270516 19.12108206 -1 17 C-1 12.05 -1 7.1 -1 2 C-4.23011077 2 -7.12296178 3.40045175 -10.125 4.5 Z " fill="#5B5B5B" transform="translate(435,68)"/>
<path d="M0 0 C6.49727686 1.70553517 12.7563316 3.52609365 19 6 C19 6.66 19 7.32 19 8 C13.38900227 7.02551228 8.32521242 4.98893476 3 3 C2.67 7.95 2.34 12.9 2 18 C3.98 18.33 5.96 18.66 8 19 C9.97383916 19.64162657 11.93359593 20.32855456 13.875 21.0625 C14.84179688 21.42472656 15.80859375 21.78695312 16.8046875 22.16015625 C17.52914062 22.43730469 18.25359375 22.71445313 19 23 C18.67 23.66 18.34 24.32 18 25 C16.49890232 24.5662812 14.99918823 24.12777365 13.5 23.6875 C12.6646875 23.44386719 11.829375 23.20023438 10.96875 22.94921875 C7.26733567 21.76574022 3.63858645 20.36446992 0 19 C0 12.73 0 6.46 0 0 Z " fill="#686868" transform="translate(180,51)"/>
<path d="M0 0 C0.66 0 1.32 0 2 0 C2 5.61 2 11.22 2 17 C-4.11059576 15.2177429 -10.0682719 13.30678315 -16 11 C-16 16.28 -16 21.56 -16 27 C-16.33 27 -16.66 27 -17 27 C-17 21.39 -17 15.78 -17 10 C-11.56076792 8.18692264 -6.10190274 11.92893057 -1 14 C-0.67 9.38 -0.34 4.76 0 0 Z " fill="#666666" transform="translate(488,43)"/>
<path d="M0 0 C0.33 0 0.66 0 1 0 C1 4.95 1 9.9 1 15 C2.52625 15.45375 4.0525 15.9075 5.625 16.375 C9.44871565 17.51178033 13.2112477 18.73708257 17 20 C17 15.38 17 10.76 17 6 C17.33 6 17.66 6 18 6 C18.495 14.415 18.495 14.415 19 23 C14.69107691 22.13821538 10.78501906 20.94366458 6.6875 19.4375 C3.3771875 18.2309375 3.3771875 18.2309375 0 17 C0 11.39 0 5.78 0 0 Z " fill="#666666" transform="translate(1,20)"/>
<path d="M0 0 C1.65 0.33 3.3 0.66 5 1 C5 7.6 5 14.2 5 21 C2.36 20.01 -0.28 19.02 -3 18 C-2.34 17.34 -1.68 16.68 -1 16 C-0.01 16.33 0.98 16.66 2 17 C2.33 12.38 2.66 7.76 3 3 C1.68 2.34 0.36 1.68 -1 1 C-0.67 0.67 -0.34 0.34 0 0 Z " fill="#9C9C9C" transform="translate(557,75)"/>
<path d="M0 0 C0.33 0 0.66 0 1 0 C1.33 5.28 1.66 10.56 2 16 C-9.25 21.22321429 -9.25 21.22321429 -13 22 C-13.33 21.34 -13.66 20.68 -14 20 C-7.565 17.525 -7.565 17.525 -1 15 C-0.67 10.05 -0.34 5.1 0 0 Z " fill="#656565" transform="translate(144,70)"/>
<path d="M0 0 C0.33 0 0.66 0 1 0 C1.89556188 11.13252306 1.97350957 21.87203671 1 33 C0.67 33 0.34 33 0 33 C-0.89556188 21.86747694 -0.97350957 11.12796329 0 0 Z " fill="#717171" transform="translate(524,42)"/>
</svg>
