<svg width="98" height="28" viewBox="0 0 98 28" fill="none" xmlns="http://www.w3.org/2000/svg">
                                        <g clip-path="url(#clip0_15857_70398)">
                                            <path d="M61.5083 20.1809L61.5483 20.1753H61.5152L61.5083 20.1809Z" fill="currentColor"></path>
                                            <path d="M59.7207 22.1718C59.7207 22.1213 59.7207 22.0719 59.7287 22.0225V22.0314C59.7253 22.0449 59.7218 22.1381 59.7207 22.1718Z" fill="currentColor"></path>
                                            <path d="M61.5698 20.1728C61.6326 20.166 61.6977 20.1638 61.7617 20.1627C61.6976 20.1621 61.6335 20.1654 61.5698 20.1728Z" fill="currentColor"></path>
                                            <path d="M77.3252 6.87378L77.3663 6.86816H77.3332L77.3252 6.87378Z" fill="currentColor"></path>
                                            <path d="M75.5376 8.86483C75.5376 8.8143 75.5376 8.76489 75.5456 8.71436V8.72446C75.5422 8.73682 75.5387 8.83002 75.5376 8.86483Z" fill="currentColor"></path>
                                            <path d="M77.3867 6.86463C77.4507 6.85902 77.5146 6.85565 77.5797 6.85565C77.5153 6.85467 77.4508 6.85767 77.3867 6.86463Z" fill="currentColor"></path>
                                            <path d="M46.4352 22.8238L44.3285 16.2544H42.2518L40.1426 22.8285L38.0911 15.645H36L38.855 26.1858H40.8585L43.2871 19.2858L45.7446 26.1858H47.7204L50.5755 15.645H48.4867L46.4352 22.8238Z" fill="currentColor"></path>
                                            <path d="M67.248 26.2012H69.2899V24.8774V15.645H67.248V26.2012Z" fill="currentColor"></path>
                                            <path d="M54.8236 18.1885C54.0045 18.1885 53.2038 18.4273 52.5227 18.8747C51.8416 19.3221 51.3108 19.958 50.9974 20.7021C50.6839 21.4461 50.6019 22.2648 50.7617 23.0546C50.9215 23.8445 51.3159 24.57 51.8951 25.1395C52.4743 25.7089 53.2122 26.0967 54.0156 26.2538C54.819 26.4109 55.6517 26.3303 56.4084 26.0221C57.1652 25.7139 57.812 25.192 58.267 24.5224C58.7221 23.8528 58.965 23.0656 58.965 22.2603C58.965 21.1804 58.5287 20.1447 57.752 19.3811C56.9753 18.6175 55.9219 18.1885 54.8236 18.1885ZM54.8236 24.5441C54.364 24.5449 53.9145 24.4115 53.532 24.161C53.1495 23.9104 52.8512 23.554 52.6749 23.1367C52.4985 22.7195 52.452 22.2601 52.5412 21.8169C52.6304 21.3736 52.8514 20.9663 53.1761 20.6466C53.5008 20.3268 53.9147 20.1089 54.3654 20.0205C54.8162 19.9321 55.2834 19.9771 55.7081 20.1499C56.1327 20.3226 56.4958 20.6154 56.7512 20.991C57.0066 21.3667 57.1429 21.8084 57.1429 22.2603C57.1435 22.866 56.8997 23.4472 56.4648 23.8763C56.0299 24.3054 55.4397 24.5473 54.8236 24.5489V24.5441Z" fill="currentColor"></path>
                                            <path d="M77.3591 15.645V18.9221C76.7383 18.4958 76.0106 18.2451 75.255 18.1972C74.4993 18.1492 73.7448 18.3058 73.0734 18.65C72.402 18.9942 71.8395 19.5127 71.4469 20.1493C71.0543 20.7858 70.8467 21.516 70.8467 22.2605C70.8467 23.0049 71.0543 23.7351 71.4469 24.3717C71.8395 25.0083 72.402 25.5268 73.0734 25.871C73.7448 26.2152 74.4993 26.3718 75.255 26.3238C76.0106 26.2759 76.7383 26.0251 77.3591 25.5989V26.2083H79.401V15.645H77.3591ZM74.9929 24.5491C74.5335 24.5493 74.0842 24.4156 73.7021 24.1648C73.3199 23.914 73.022 23.5573 72.846 23.14C72.67 22.7227 72.6238 22.2635 72.7133 21.8204C72.8028 21.3773 73.0239 20.9702 73.3487 20.6507C73.6736 20.3312 74.0875 20.1135 74.5381 20.0253C74.9888 19.9371 75.4559 19.9822 75.8804 20.1551C76.305 20.3279 76.6678 20.6206 76.9231 20.9962C77.1784 21.3718 77.3147 21.8135 77.3147 22.2652C77.3141 22.8705 77.0693 23.4509 76.634 23.8791C76.1988 24.3072 75.6086 24.5482 74.9929 24.5491Z" fill="currentColor"></path>
                                            <path d="M62.7724 22.5929C62.7724 22.5268 62.7724 22.5032 62.7808 22.4358C62.8205 21.9513 63.0279 21.4948 63.3684 21.1424C63.7089 20.79 64.162 20.5629 64.6521 20.4991H64.6593H64.6942H64.717C64.784 20.4914 64.8514 20.4879 64.9188 20.4885H64.9692H65.0509C65.117 20.4885 65.1818 20.498 65.2455 20.5074C65.3091 20.5169 65.3656 20.5251 65.3656 20.5251V18.3652C64.3994 18.3921 63.4763 18.7641 62.7688 19.4115V18.6274H60.7329V26.1852H62.7748V22.659C62.7748 22.659 62.7724 22.5964 62.7724 22.5929Z" fill="currentColor"></path>
                                            <path d="M55.9504 11.6453V12.2357H57.7689V4.37203H55.9504V4.91761C55.328 4.5009 54.6017 4.25892 53.8499 4.21773C53.098 4.17654 52.3489 4.33769 51.6832 4.68384C51.0176 5.02999 50.4605 5.54803 50.0719 6.18225C49.6834 6.81646 49.478 7.54283 49.478 8.28321C49.478 9.0236 49.6834 9.74997 50.0719 10.3842C50.4605 11.0184 51.0176 11.5364 51.6832 11.8826C52.3489 12.2287 53.098 12.3899 53.8499 12.3487C54.6017 12.3075 55.328 12.0655 55.9504 11.6488V11.6453ZM51.2961 8.28203C51.2959 7.83022 51.4319 7.38849 51.6871 7.01273C51.9423 6.63697 52.305 6.34405 52.7296 6.17104C53.1541 5.99803 53.6212 5.95271 54.072 6.04079C54.5227 6.12888 54.9367 6.34642 55.2616 6.6659C55.5866 6.98538 55.8078 7.39244 55.8974 7.83558C55.987 8.27872 55.9409 8.73803 55.765 9.1554C55.589 9.57278 55.2911 9.92946 54.9089 10.1803C54.5267 10.4312 54.0774 10.565 53.6179 10.5647C53.0024 10.5638 52.4124 10.323 51.9772 9.89511C51.542 9.46723 51.2971 8.88716 51.2961 8.28203Z" fill="currentColor"></path>
                                            <path d="M38.0599 5.46273L41.1612 11.5999H42.5545L45.6545 5.46273V12.2093H47.7132V1.66846H45.5152L41.8578 8.56735L38.1992 1.66846H36V12.2093H38.0599V5.46273Z" fill="currentColor"></path>
                                            <path d="M67.1903 4.37039H64.728L61.903 7.94028V1.66846H59.8623V12.2294H61.903V8.14222L64.8181 12.2294H67.2804L64.2668 8.0442L67.1903 4.37039Z" fill="currentColor"></path>
                                            <path d="M79.4055 8.59876C79.4055 8.53145 79.4055 8.50901 79.4139 8.44052C79.4538 7.9562 79.6613 7.49995 80.0018 7.14777C80.3423 6.79559 80.7953 6.56874 81.2852 6.505H81.2936H81.3284H81.3501C81.4175 6.49768 81.4853 6.49452 81.5531 6.49556H81.5651H81.6035H81.6852C81.75 6.49556 81.8149 6.505 81.8798 6.51445C81.9446 6.5239 81.9999 6.53098 81.9999 6.53098V4.37109C81.0317 4.39691 80.1063 4.7689 79.3971 5.41738V4.63326H77.3672V12.2289H79.4091V8.59876H79.4055Z" fill="currentColor"></path>
                                            <path d="M71.7317 10.5645C71.228 10.5634 70.7383 10.4017 70.3361 10.1036C69.9338 9.80544 69.6409 9.38703 69.5013 8.9112H75.8179C75.8534 8.70318 75.8719 8.4927 75.8732 8.28178C75.8737 7.27312 75.4936 6.30014 74.8064 5.55122C74.1192 4.8023 73.1738 4.33073 72.1532 4.22781C71.1327 4.12489 70.1096 4.39795 69.282 4.99411C68.4545 5.59027 67.8814 6.46713 67.6737 7.45489C67.466 8.44266 67.6384 9.47107 68.1577 10.341C68.6769 11.2109 69.506 11.8605 70.4844 12.1639C71.4628 12.4673 72.5209 12.4029 73.4538 11.9833C74.3868 11.5637 75.1282 10.8187 75.5344 9.89254H73.3724C73.1573 10.1051 72.9017 10.2739 72.6202 10.3892C72.3386 10.5045 72.0367 10.564 71.7317 10.5645ZM71.7317 5.99789C72.1908 5.99846 72.6394 6.13252 73.0211 6.38321C73.4028 6.6339 73.7006 6.99001 73.8769 7.40672H69.5877C69.7639 6.99011 70.0614 6.63404 70.4429 6.38334C70.8244 6.13265 71.2729 5.99853 71.7317 5.99789Z" fill="currentColor"></path>
                                            <path d="M27.2867 2.68142L20.8492 0.160571L20.4386 0L20.0257 0.160571L13.9977 2.51861L7.96978 0.160571L7.56139 0L7.15188 0.160571L0.713275 2.68142L0 2.96102V25.0401L0.713275 25.3186L7.15188 27.8394L7.56139 28L7.97091 27.8394L14 25.4814L20.028 27.8394L20.4386 28L20.8492 27.8394L27.2867 25.3186L28 25.0401V2.96102L27.2867 2.68142ZM20.4386 1.20372L26.8772 3.7257V12.8356L20.4386 10.3158V1.20372ZM14.4095 13.8787L20.4386 11.5207L26.4677 13.8787L26.7748 13.9989L26.4677 14.119L20.4386 16.4771L14.4095 14.119L14.1024 13.9989L14.4095 13.8787ZM7.56139 1.20372L14 3.7257V12.8356L7.56139 10.3147V1.20372ZM1.53343 13.8787L7.56139 11.5207L13.5905 13.8787L13.8976 13.9989L13.5905 14.119L7.56139 16.4771L1.53343 14.119L1.22629 13.9989L1.53343 13.8787ZM1.12504 24.2732V15.1588L7.56365 17.6785V26.7895L1.12504 24.2732ZM14.0022 24.2732V15.1588L20.4409 17.6785V26.7895L14.0022 24.2732Z" fill="currentColor"></path>
                                        </g>
                                        <path fill-rule="evenodd" clip-rule="evenodd" d="M86 -1.33514e-05L86 28L98 28L98 -1.3876e-05L86 -1.33514e-05ZM88.25 22.2065L88.25 24.3617L95.6488 24.3617L95.6488 21.7707C95.6488 21.2465 95.5644 20.7949 95.3957 20.4159C95.2237 20.0338 94.9774 19.7402 94.6569 19.5349C94.3364 19.3296 93.9518 19.227 93.503 19.227C93.115 19.227 92.8047 19.2838 92.5719 19.3975C92.3357 19.5081 92.1569 19.6565 92.0354 19.8428C91.9106 20.0291 91.8229 20.2375 91.7723 20.4681L91.7217 20.4681C91.6778 20.2407 91.5833 20.0481 91.4383 19.8902C91.2932 19.7323 91.1076 19.6123 90.8816 19.5302C90.6555 19.4449 90.4025 19.4023 90.1225 19.4023C89.4275 19.4023 88.9416 19.6391 88.665 20.1128C88.3883 20.5865 88.25 21.2844 88.25 22.2065ZM91.1802 22.0407L91.1802 22.8933L89.5354 22.8933L89.5354 22.1212C89.5354 21.7012 89.5978 21.3949 89.7227 21.2023C89.8441 21.0065 90.0466 20.9086 90.33 20.9086C90.61 20.9086 90.8225 20.9907 90.9676 21.1549C91.1093 21.3191 91.1802 21.6144 91.1802 22.0407ZM94.3532 22.8933L92.4251 22.8933L92.4251 21.9838C92.4251 21.6712 92.4639 21.4265 92.5415 21.2496C92.6191 21.0696 92.7271 20.9417 92.8654 20.8659C93.0037 20.7902 93.164 20.7523 93.3462 20.7523C93.6532 20.7523 93.8978 20.8391 94.08 21.0128C94.2621 21.1865 94.3532 21.4944 94.3532 21.9365L94.3532 22.8933ZM90.1883 14.5091C89.9858 14.8628 89.8846 15.2844 89.8846 15.7738C89.8846 16.2728 89.996 16.7102 90.2186 17.0859C90.4379 17.4617 90.7686 17.7554 91.2105 17.967C91.6491 18.1754 92.1991 18.2796 92.8603 18.2796C93.5115 18.2796 94.0513 18.1644 94.4798 17.9338C94.9082 17.7002 95.2271 17.3796 95.4362 16.9723C95.6454 16.5617 95.75 16.0912 95.75 15.5607C95.75 15.1533 95.7179 14.8075 95.6538 14.5233C95.5897 14.2359 95.4885 13.9612 95.3502 13.6991L94.1559 13.6991C94.3043 13.9959 94.4157 14.2849 94.4899 14.5659C94.5641 14.847 94.6012 15.1565 94.6012 15.4944C94.6012 15.9017 94.4781 16.2207 94.2318 16.4512C93.9821 16.6786 93.6397 16.8002 93.2045 16.8159L93.2045 13.4007L92.4555 13.4007C91.9055 13.4007 91.4399 13.497 91.0587 13.6896C90.6775 13.8823 90.3873 14.1554 90.1883 14.5091ZM91.2713 16.4654C91.0789 16.2791 90.9828 16.0454 90.9828 15.7644C90.9828 15.537 91.0351 15.3507 91.1397 15.2054C91.2443 15.057 91.386 14.9465 91.5648 14.8738C91.7436 14.798 91.9477 14.7586 92.1771 14.7554L92.1771 16.7828C91.7655 16.7544 91.4636 16.6486 91.2713 16.4654ZM94.5202 9.99489C94.5202 9.83699 94.5034 9.68383 94.4696 9.53541C94.4359 9.38383 94.3937 9.23383 94.3431 9.08541L95.4919 9.08541C95.5661 9.24015 95.6269 9.43278 95.6741 9.66331C95.7247 9.89068 95.75 10.1401 95.75 10.4117C95.75 10.7275 95.696 11.0117 95.5881 11.2644C95.4767 11.5138 95.2861 11.7112 95.0162 11.8565C94.7429 11.9986 94.3634 12.0696 93.8775 12.0696L91.1498 12.0696L91.1498 12.7612L90.497 12.7612L89.9808 11.9654L88.7864 11.5486L88.7864 10.6249L89.9909 10.6249L89.9909 9.14226L91.1498 9.14226L91.1498 10.6249L93.8775 10.6249C94.0935 10.6249 94.2554 10.568 94.3634 10.4544C94.4679 10.3375 94.5202 10.1844 94.5202 9.99489ZM90.3704 4.20646C90.0398 4.58541 89.8745 5.13015 89.8745 5.84068C89.8745 6.21331 89.92 6.57489 90.0111 6.92541C90.1022 7.27278 90.2271 7.58699 90.3856 7.86804L91.4281 7.38962C91.3101 7.14331 91.2122 6.89699 91.1346 6.65067C91.057 6.40436 91.0182 6.15331 91.0182 5.89752C91.0182 5.63857 91.0874 5.43646 91.2257 5.2912C91.364 5.14594 91.5816 5.0733 91.8785 5.0733L92.1265 5.0733L92.1569 5.99225C92.1872 6.78173 92.3458 7.37383 92.6326 7.76857C92.916 8.16331 93.358 8.36068 93.9585 8.36068C94.3667 8.36068 94.7041 8.28962 94.9706 8.14752C95.2338 8.00541 95.4295 7.8112 95.5577 7.56489C95.6859 7.31541 95.75 7.03436 95.75 6.72173C95.75 6.42804 95.7196 6.17857 95.6589 5.97331C95.5982 5.76804 95.5037 5.58646 95.3755 5.42857C95.2473 5.27067 95.082 5.11594 94.8796 4.96436L94.8796 4.92646L95.6488 4.64699L95.6488 3.63804L91.8785 3.63804C91.2038 3.63804 90.7011 3.82752 90.3704 4.20646ZM93.0476 5.63225L93.0273 5.0733L93.4929 5.0733C93.8539 5.0733 94.1323 5.18067 94.3279 5.39541C94.5236 5.60699 94.6215 5.86752 94.6215 6.17699C94.6215 6.38541 94.5725 6.55436 94.4747 6.68383C94.3735 6.81331 94.2048 6.87804 93.9686 6.87804C93.6987 6.87804 93.4811 6.78804 93.3158 6.60804C93.1505 6.42488 93.0611 6.09962 93.0476 5.63225Z" fill="currentColor"></path>
                                        <defs>
                                            <clipPath id="clip0_15857_70398">
                                                <rect width="82" height="28" fill="currentColor"></rect>
                                            </clipPath>
                                        </defs>
                                    </svg>