<svg width="24" height="24" viewBox="0 0 24 24"
                            fill="none">
                            <path
                                d="M10.1678 18.181C11.9416 18.181 13.5773 17.6128 14.9156 16.666L19.9501 21.6528C20.1838 21.8843 20.4918 22 20.821 22C21.5114 22 22 21.474 22 20.8006C22 20.485 21.8938 20.1799 21.6601 19.959L16.6575 14.9932C17.709 13.6255 18.3356 11.9316 18.3356 10.0905C18.3356 5.64019 14.6606 2 10.1678 2C5.68561 2 2 5.62967 2 10.0905C2 14.5408 5.67499 18.181 10.1678 18.181ZM10.1678 16.4345C6.66277 16.4345 3.76314 13.5623 3.76314 10.0905C3.76314 6.61862 6.66277 3.74645 10.1678 3.74645C13.6729 3.74645 16.5725 6.61862 16.5725 10.0905C16.5725 13.5623 13.6729 16.4345 10.1678 16.4345Z"
                                fill="#C4C4C4"></path>
                        </svg>